<?xml version="1.0" encoding="iso-8859-1"?>
<!-- Uploaded to: SVG Repo, www.svgrepo.com, Generator: SVG Repo Mixer Tools -->
<!DOCTYPE svg PUBLIC "-//W3C//DTD SVG 1.1//EN" "http://www.w3.org/Graphics/SVG/1.1/DTD/svg11.dtd">
<svg fill="#000000" height="800px" width="800px" version="1.1" id="Capa_1" xmlns="http://www.w3.org/2000/svg" xmlns:xlink="http://www.w3.org/1999/xlink" 
	 viewBox="0 0 345 345" xml:space="preserve">
<g>
	<path d="M172.5,0c-82.71,0-150,67.29-150,150s67.29,150,150,150s150-67.29,150-150S255.21,0,172.5,0z M172.5,270
		c-66.168,0-120-53.832-120-120s53.832-120,120-120s120,53.832,120,120S238.668,270,172.5,270z"/>
	<path d="M217.531,75.387C205.977,66.802,191.831,65,182,65h-38.846c-5.522,0-10,4.478-10,10v150c0,5.523,4.478,10,10,10h7.691
		c5.522,0,10-4.477,10-10v-53.46H182c9.831,0,23.977-1.802,35.531-10.388c8.355-6.207,18.314-18.352,18.314-40.961v-3.843
		C235.846,93.739,225.887,81.594,217.531,75.387z M207.77,119.809c0,10.484-2.671,24.424-25.77,24.424h-21.154V92.308H182
		c23.099,0,25.77,13.939,25.77,24.424V119.809z"/>
	<path d="M205.498,315h-65.996c-8.284,0-15,6.716-15,15s6.716,15,15,15h65.996c8.284,0,15-6.716,15-15S213.782,315,205.498,315z"/>
</g>
</svg>